This is my remux with AC3 and an older version of MKVMerge V2.4, which changes the header compression and therefore the frame totals from the original which had DTS sound,thus this file is quite a bit smaller with no loss of video quality, to be compatible with more devices. 																							Download the sample and judge for yourself.																														All credit goes to the original ripper.																															Enjoy and please share.																																		TTLTTLTTLTTLTTLTTLTTLTTLTTLTTLTTLTTLTTLTTLTTLTTLTTLTTL																									XIII_The_Series_S02_E03_Defender_720p_BluRay_x264_AC3_TTL.mkv
Format                           : Matroska
File size                        : 1.76 GiB
Duration                         : 43mn 31s
Overall bit rate                 : 5 789 Kbps
Encoded date                     : UTC 2013-01-10 14:06:30
Writing application              : mkvmerge v2.4.0 ('Fumbling Towards Ecstasy') built on Oct 11 2008 20:13:15
Writing library                  : libebml v0.7.7 + libmatroska v0.8.1

Video
ID                               : 2
Format                           : AVC
Format/Info                      : Advanced Video Codec
Format profile                   : High@L4.1
Format settings, CABAC           : Yes
Format settings, ReFrames        : 5 frames
Muxing mode                      : Container profile=Unknown@4.1
Codec ID                         : V_MPEG4/ISO/AVC
Duration                         : 43mn 31s
Bit rate                         : 5 562 Kbps
Nominal bit rate                 : 5 674 Kbps
Width                            : 1 280 pixels
Height                           : 720 pixels
Display aspect ratio             : 16:9
Frame rate                       : 25.000 fps
Resolution                       : 8 bits
Colorimetry                      : 4:2:0
Scan type                        : Progressive
Bits/(Pixel*Frame)               : 0.241
Stream size                      : 1.69 GiB (96%)
Writing library                  : x264 core 129 r2230 1cffe9f

Audio                            : English
ID                               : 1
Format                           : AC-3
Format/Info                      : Audio Coding 3
Codec ID                         : A_AC3
Duration                         : 43mn 31s
Bit rate mode                    : Constant
Bit rate                         : 112 Kbps
Channel(s)                       : 2 channels
Channel positions                : L R
Sampling rate                    : 48.0 KHz
Stream size                      : 34.9 MiB (2%)

Menu
00:00:00.000                     : en:00:00:00.000
00:12:24.080                     : en:00:12:24.080
00:19:03.480                     : en:00:19:03.480
00:26:58.400                     : en:00:26:58.400
00:34:32.360                     : en:00:34:32.360
00:41:22.840                     : en:00:41:22.840

